<svg xmlns="http://www.w3.org/2000/svg" width="720" height="960" viewBox="0 0 720 960"><title>stage_2_midboss_spell_1 occupancy heatmap</title><rect width="720" height="960" fill="rgb(255,255,255)"/><rect x="0" y="0" width="60" height="60" fill="rgb(255,248,248)"/><rect x="60" y="0" width="60" height="60" fill="rgb(255,251,251)"/><rect x="120" y="0" width="60" height="60" fill="rgb(255,251,251)"/><rect x="180" y="0" width="60" height="60" fill="rgb(255,248,248)"/><rect x="240" y="0" width="60" height="60" fill="rgb(255,248,248)"/><rect x="300" y="0" width="60" height="60" fill="rgb(255,244,244)"/><rect x="360" y="0" width="60" height="60" fill="rgb(255,251,251)"/><rect x="420" y="0" width="60" height="60" fill="rgb(255,248,248)"/><rect x="480" y="0" width="60" height="60" fill="rgb(255,255,255)"/><rect x="540" y="0" width="60" height="60" fill="rgb(255,251,251)"/><rect x="600" y="0" width="60" height="60" fill="rgb(255,251,251)"/><rect x="660" y="0" width="60" height="60" fill="rgb(255,251,251)"/><rect x="0" y="60" width="60" height="60" fill="rgb(255,233,233)"/><rect x="60" y="60" width="60" height="60" fill="rgb(255,233,233)"/><rect x="120" y="60" width="60" height="60" fill="rgb(255,230,230)"/><rect x="180" y="60" width="60" height="60" fill="rgb(255,219,219)"/><rect x="240" y="60" width="60" height="60" fill="rgb(255,186,186)"/><rect x="300" y="60" width="60" height="60" fill="rgb(255,35,35)"/><rect x="360" y="60" width="60" height="60" fill="rgb(255,215,215)"/><rect x="420" y="60" width="60" height="60" fill="rgb(255,248,248)"/><rect x="480" y="60" width="60" height="60" fill="rgb(255,255,255)"/><rect x="540" y="60" width="60" height="60" fill="rgb(255,248,248)"/><rect x="600" y="60" width="60" height="60" fill="rgb(255,255,255)"/><rect x="660" y="60" width="60" height="60" fill="rgb(255,251,251)"/><rect x="0" y="120" width="60" height="60" fill="rgb(255,230,230)"/><rect x="60" y="120" width="60" height="60" fill="rgb(255,208,208)"/><rect x="120" y="120" width="60" height="60" fill="rgb(255,219,219)"/><rect x="180" y="120" width="60" height="60" fill="rgb(255,190,190)"/><rect x="240" y="120" width="60" height="60" fill="rgb(255,150,150)"/><rect x="300" y="120" width="60" height="60" fill="rgb(255,147,147)"/><rect x="360" y="120" width="60" height="60" fill="rgb(255,215,215)"/><rect x="420" y="120" width="60" height="60" fill="rgb(255,248,248)"/><rect x="480" y="120" width="60" height="60" fill="rgb(255,255,255)"/><rect x="540" y="120" width="60" height="60" fill="rgb(255,248,248)"/><rect x="600" y="120" width="60" height="60" fill="rgb(255,255,255)"/><rect x="660" y="120" width="60" height="60" fill="rgb(255,251,251)"/><rect x="0" y="180" width="60" height="60" fill="rgb(255,212,212)"/><rect x="60" y="180" width="60" height="60" fill="rgb(255,215,215)"/><rect x="120" y="180" width="60" height="60" fill="rgb(255,194,194)"/><rect x="180" y="180" width="60" height="60" fill="rgb(255,176,176)"/><rect x="240" y="180" width="60" height="60" fill="rgb(255,176,176)"/><rect x="300" y="180" width="60" height="60" fill="rgb(255,190,190)"/><rect x="360" y="180" width="60" height="60" fill="rgb(255,219,219)"/><rect x="420" y="180" width="60" height="60" fill="rgb(255,244,244)"/><rect x="480" y="180" width="60" height="60" fill="rgb(255,255,255)"/><rect x="540" y="180" width="60" height="60" fill="rgb(255,248,248)"/><rect x="600" y="180" width="60" height="60" fill="rgb(255,255,255)"/><rect x="660" y="180" width="60" height="60" fill="rgb(255,248,248)"/><rect x="0" y="240" width="60" height="60" fill="rgb(255,186,186)"/><rect x="60" y="240" width="60" height="60" fill="rgb(255,208,208)"/><rect x="120" y="240" width="60" height="60" fill="rgb(255,208,208)"/><rect x="180" y="240" width="60" height="60" fill="rgb(255,186,186)"/><rect x="240" y="240" width="60" height="60" fill="rgb(255,183,183)"/><rect x="300" y="240" width="60" height="60" fill="rgb(255,205,205)"/><rect x="360" y="240" width="60" height="60" fill="rgb(255,215,215)"/><rect x="420" y="240" width="60" height="60" fill="rgb(255,237,237)"/><rect x="480" y="240" width="60" height="60" fill="rgb(255,255,255)"/><rect x="540" y="240" width="60" height="60" fill="rgb(255,248,248)"/><rect x="600" y="240" width="60" height="60" fill="rgb(255,255,255)"/><rect x="660" y="240" width="60" height="60" fill="rgb(255,248,248)"/><rect x="0" y="300" width="60" height="60" fill="rgb(255,197,197)"/><rect x="60" y="300" width="60" height="60" fill="rgb(255,205,205)"/><rect x="120" y="300" width="60" height="60" fill="rgb(255,194,194)"/><rect x="180" y="300" width="60" height="60" fill="rgb(255,194,194)"/><rect x="240" y="300" width="60" height="60" fill="rgb(255,197,197)"/><rect x="300" y="300" width="60" height="60" fill="rgb(255,201,201)"/><rect x="360" y="300" width="60" height="60" fill="rgb(255,215,215)"/><rect x="420" y="300" width="60" height="60" fill="rgb(255,233,233)"/><rect x="480" y="300" width="60" height="60" fill="rgb(255,244,244)"/><rect x="540" y="300" width="60" height="60" fill="rgb(255,248,248)"/><rect x="600" y="300" width="60" height="60" fill="rgb(255,255,255)"/><rect x="660" y="300" width="60" height="60" fill="rgb(255,248,248)"/><rect x="0" y="360" width="60" height="60" fill="rgb(255,190,190)"/><rect x="60" y="360" width="60" height="60" fill="rgb(255,194,194)"/><rect x="120" y="360" width="60" height="60" fill="rgb(255,215,215)"/><rect x="180" y="360" width="60" height="60" fill="rgb(255,183,183)"/><rect x="240" y="360" width="60" height="60" fill="rgb(255,197,197)"/><rect x="300" y="360" width="60" height="60" fill="rgb(255,219,219)"/><rect x="360" y="360" width="60" height="60" fill="rgb(255,226,226)"/><rect x="420" y="360" width="60" height="60" fill="rgb(255,226,226)"/><rect x="480" y="360" width="60" height="60" fill="rgb(255,237,237)"/><rect x="540" y="360" width="60" height="60" fill="rgb(255,248,248)"/><rect x="600" y="360" width="60" height="60" fill="rgb(255,248,248)"/><rect x="660" y="360" width="60" height="60" fill="rgb(255,248,248)"/><rect x="0" y="420" width="60" height="60" fill="rgb(255,190,190)"/><rect x="60" y="420" width="60" height="60" fill="rgb(255,205,205)"/><rect x="120" y="420" width="60" height="60" fill="rgb(255,197,197)"/><rect x="180" y="420" width="60" height="60" fill="rgb(255,208,208)"/><rect x="240" y="420" width="60" height="60" fill="rgb(255,190,190)"/><rect x="300" y="420" width="60" height="60" fill="rgb(255,179,179)"/><rect x="360" y="420" width="60" height="60" fill="rgb(255,194,194)"/><rect x="420" y="420" width="60" height="60" fill="rgb(255,233,233)"/><rect x="480" y="420" width="60" height="60" fill="rgb(255,244,244)"/><rect x="540" y="420" width="60" height="60" fill="rgb(255,248,248)"/><rect x="600" y="420" width="60" height="60" fill="rgb(255,241,241)"/><rect x="660" y="420" width="60" height="60" fill="rgb(255,248,248)"/><rect x="0" y="480" width="60" height="60" fill="rgb(255,197,197)"/><rect x="60" y="480" width="60" height="60" fill="rgb(255,208,208)"/><rect x="120" y="480" width="60" height="60" fill="rgb(255,194,194)"/><rect x="180" y="480" width="60" height="60" fill="rgb(255,215,215)"/><rect x="240" y="480" width="60" height="60" fill="rgb(255,226,226)"/><rect x="300" y="480" width="60" height="60" fill="rgb(255,226,226)"/><rect x="360" y="480" width="60" height="60" fill="rgb(255,219,219)"/><rect x="420" y="480" width="60" height="60" fill="rgb(255,230,230)"/><rect x="480" y="480" width="60" height="60" fill="rgb(255,233,233)"/><rect x="540" y="480" width="60" height="60" fill="rgb(255,248,248)"/><rect x="600" y="480" width="60" height="60" fill="rgb(255,248,248)"/><rect x="660" y="480" width="60" height="60" fill="rgb(255,251,251)"/><rect x="0" y="540" width="60" height="60" fill="rgb(255,194,194)"/><rect x="60" y="540" width="60" height="60" fill="rgb(255,205,205)"/><rect x="120" y="540" width="60" height="60" fill="rgb(255,208,208)"/><rect x="180" y="540" width="60" height="60" fill="rgb(255,212,212)"/><rect x="240" y="540" width="60" height="60" fill="rgb(255,223,223)"/><rect x="300" y="540" width="60" height="60" fill="rgb(255,223,223)"/><rect x="360" y="540" width="60" height="60" fill="rgb(255,233,233)"/><rect x="420" y="540" width="60" height="60" fill="rgb(255,230,230)"/><rect x="480" y="540" width="60" height="60" fill="rgb(255,237,237)"/><rect x="540" y="540" width="60" height="60" fill="rgb(255,244,244)"/><rect x="600" y="540" width="60" height="60" fill="rgb(255,241,241)"/><rect x="660" y="540" width="60" height="60" fill="rgb(255,248,248)"/><rect x="0" y="600" width="60" height="60" fill="rgb(255,212,212)"/><rect x="60" y="600" width="60" height="60" fill="rgb(255,201,201)"/><rect x="120" y="600" width="60" height="60" fill="rgb(255,223,223)"/><rect x="180" y="600" width="60" height="60" fill="rgb(255,205,205)"/><rect x="240" y="600" width="60" height="60" fill="rgb(255,205,205)"/><rect x="300" y="600" width="60" height="60" fill="rgb(255,215,215)"/><rect x="360" y="600" width="60" height="60" fill="rgb(255,219,219)"/><rect x="420" y="600" width="60" height="60" fill="rgb(255,230,230)"/><rect x="480" y="600" width="60" height="60" fill="rgb(255,233,233)"/><rect x="540" y="600" width="60" height="60" fill="rgb(255,241,241)"/><rect x="600" y="600" width="60" height="60" fill="rgb(255,237,237)"/><rect x="660" y="600" width="60" height="60" fill="rgb(255,248,248)"/><rect x="0" y="660" width="60" height="60" fill="rgb(255,208,208)"/><rect x="60" y="660" width="60" height="60" fill="rgb(255,205,205)"/><rect x="120" y="660" width="60" height="60" fill="rgb(255,208,208)"/><rect x="180" y="660" width="60" height="60" fill="rgb(255,223,223)"/><rect x="240" y="660" width="60" height="60" fill="rgb(255,226,226)"/><rect x="300" y="660" width="60" height="60" fill="rgb(255,230,230)"/><rect x="360" y="660" width="60" height="60" fill="rgb(255,226,226)"/><rect x="420" y="660" width="60" height="60" fill="rgb(255,237,237)"/><rect x="480" y="660" width="60" height="60" fill="rgb(255,230,230)"/><rect x="540" y="660" width="60" height="60" fill="rgb(255,244,244)"/><rect x="600" y="660" width="60" height="60" fill="rgb(255,241,241)"/><rect x="660" y="660" width="60" height="60" fill="rgb(255,244,244)"/><rect x="0" y="720" width="60" height="60" fill="rgb(255,215,215)"/><rect x="60" y="720" width="60" height="60" fill="rgb(255,208,208)"/><rect x="120" y="720" width="60" height="60" fill="rgb(255,201,201)"/><rect x="180" y="720" width="60" height="60" fill="rgb(255,226,226)"/><rect x="240" y="720" width="60" height="60" fill="rgb(255,212,212)"/><rect x="300" y="720" width="60" height="60" fill="rgb(255,223,223)"/><rect x="360" y="720" width="60" height="60" fill="rgb(255,230,230)"/><rect x="420" y="720" width="60" height="60" fill="rgb(255,226,226)"/><rect x="480" y="720" width="60" height="60" fill="rgb(255,233,233)"/><rect x="540" y="720" width="60" height="60" fill="rgb(255,237,237)"/><rect x="600" y="720" width="60" height="60" fill="rgb(255,244,244)"/><rect x="660" y="720" width="60" height="60" fill="rgb(255,244,244)"/><rect x="0" y="780" width="60" height="60" fill="rgb(255,208,208)"/><rect x="60" y="780" width="60" height="60" fill="rgb(255,215,215)"/><rect x="120" y="780" width="60" height="60" fill="rgb(255,208,208)"/><rect x="180" y="780" width="60" height="60" fill="rgb(255,223,223)"/><rect x="240" y="780" width="60" height="60" fill="rgb(255,230,230)"/><rect x="300" y="780" width="60" height="60" fill="rgb(255,215,215)"/><rect x="360" y="780" width="60" height="60" fill="rgb(255,219,219)"/><rect x="420" y="780" width="60" height="60" fill="rgb(255,237,237)"/><rect x="480" y="780" width="60" height="60" fill="rgb(255,233,233)"/><rect x="540" y="780" width="60" height="60" fill="rgb(255,233,233)"/><rect x="600" y="780" width="60" height="60" fill="rgb(255,248,248)"/><rect x="660" y="780" width="60" height="60" fill="rgb(255,241,241)"/><rect x="0" y="840" width="60" height="60" fill="rgb(255,205,205)"/><rect x="60" y="840" width="60" height="60" fill="rgb(255,201,201)"/><rect x="120" y="840" width="60" height="60" fill="rgb(255,215,215)"/><rect x="180" y="840" width="60" height="60" fill="rgb(255,201,201)"/><rect x="240" y="840" width="60" height="60" fill="rgb(255,212,212)"/><rect x="300" y="840" width="60" height="60" fill="rgb(255,226,226)"/><rect x="360" y="840" width="60" height="60" fill="rgb(255,205,205)"/><rect x="420" y="840" width="60" height="60" fill="rgb(255,237,237)"/><rect x="480" y="840" width="60" height="60" fill="rgb(255,226,226)"/><rect x="540" y="840" width="60" height="60" fill="rgb(255,226,226)"/><rect x="600" y="840" width="60" height="60" fill="rgb(255,233,233)"/><rect x="660" y="840" width="60" height="60" fill="rgb(255,248,248)"/><rect x="0" y="900" width="60" height="60" fill="rgb(255,205,205)"/><rect x="60" y="900" width="60" height="60" fill="rgb(255,212,212)"/><rect x="120" y="900" width="60" height="60" fill="rgb(255,215,215)"/><rect x="180" y="900" width="60" height="60" fill="rgb(255,219,219)"/><rect x="240" y="900" width="60" height="60" fill="rgb(255,223,223)"/><rect x="300" y="900" width="60" height="60" fill="rgb(255,215,215)"/><rect x="360" y="900" width="60" height="60" fill="rgb(255,223,223)"/><rect x="420" y="900" width="60" height="60" fill="rgb(255,233,233)"/><rect x="480" y="900" width="60" height="60" fill="rgb(255,233,233)"/><rect x="540" y="900" width="60" height="60" fill="rgb(255,237,237)"/><rect x="600" y="900" width="60" height="60" fill="rgb(255,241,241)"/><rect x="660" y="900" width="60" height="60" fill="rgb(255,233,233)"/></svg>
