<svg xmlns="http://www.w3.org/2000/svg" width="720" height="240" viewBox="0 0 720 240"><title>stage_2_boss_nonspell_1 active bullets</title><rect width="720" height="240" fill="rgb(255,255,255)"/><line x1="0" y1="220" x2="720" y2="220" stroke="rgb(100,100,100)"/><polyline fill="none" stroke="rgb(180,0,0)" stroke-width="2" points="0,220 3,220 6,220 9,220 12,220 15,220 18,220 21,220 24,220 27,220 30,220 33,220 36,220 39,220 42,220 45,220 48,220 51,220 54,53 57,53 60,53 63,53 66,53 69,53 72,53 75,53 78,53 81,53 84,53 87,53 90,53 93,53 96,53 99,53 102,76 105,98 108,98 111,120 114,120 117,120 121,120 124,120 127,120 130,142 133,142 136,142 139,142 142,142 145,142 148,142 151,198 154,198 157,198 160,220 163,20 166,20 169,20 172,53 175,53 178,53 181,53 184,53 187,53 190,53 193,53 196,53 199,53 202,53 205,53 208,53 211,64 214,76 217,87 220,109 223,120 226,120 229,120 232,120 235,120 238,142 241,142 244,142 247,142 250,142 253,142 256,142 259,198 262,198 265,198 268,220 271,53 274,53 277,53 280,53 283,53 286,53 289,53 292,53 295,53 298,53 301,53 304,53 307,53 310,53 313,53 316,53 319,64 322,76 325,87 328,98 331,109 334,109 337,120 340,120 343,131 346,153 349,153 352,153 355,153 358,153 362,153 365,153 368,209 371,209 374,209 377,220 380,53 383,53 386,53 389,53 392,53 395,53 398,53 401,53 404,53 407,53 410,53 413,53 416,53 419,53 422,53 425,53 428,64 431,76 434,53 437,64 440,76 443,109 446,131 449,142 452,153 455,164 458,164 461,164 464,164 467,164 470,164 473,164 476,209 479,209 482,209 485,220 488,53 491,53 494,53 497,53 500,53 503,53 506,53 509,53 512,53 515,53 518,53 521,53 524,53 527,53 530,53 533,53 536,64 539,76 542,87 545,98 548,120 551,131 554,153 557,164 560,176 563,187 566,187 569,187 572,187 575,187 578,187 581,187 584,209 587,209 590,209 593,220 596,53 599,53 603,53 606,53 609,53 612,53 615,53 618,53 621,53 624,53 627,53 630,53 633,53 636,53 639,53 642,53 645,64 648,76 651,87 654,98 657,142 660,153 663,176 666,187 669,198 672,209 675,209 678,209 681,209 684,209 687,209 690,209 693,209 696,209 699,209 702,220 705,20 708,20 711,20 714,53 717,53 720,53"/></svg>
