<svg xmlns="http://www.w3.org/2000/svg" width="720" height="240" viewBox="0 0 720 240"><title>stage_2_boss_spell_1 active bullets</title><rect width="720" height="240" fill="rgb(255,255,255)"/><line x1="0" y1="220" x2="720" y2="220" stroke="rgb(100,100,100)"/><polyline fill="none" stroke="rgb(180,0,0)" stroke-width="2" points="0,220 3,220 6,220 9,220 12,220 15,220 18,220 21,220 24,220 27,220 30,220 33,220 36,220 39,220 42,220 45,220 48,220 51,220 54,56 57,56 60,56 63,56 66,56 69,56 72,56 75,56 78,65 81,84 84,84 87,93 90,93 93,93 96,93 99,102 102,111 105,111 108,129 111,129 114,156 117,156 121,184 124,193 127,202 130,211 133,211 136,211 139,211 142,211 145,211 148,211 151,211 154,220 157,220 160,220 163,56 166,56 169,56 172,56 175,56 178,56 181,56 184,56 187,65 190,84 193,93 196,93 199,102 202,102 205,111 208,120 211,120 214,120 217,120 220,129 223,147 226,156 229,193 232,202 235,202 238,202 241,202 244,202 247,202 250,202 253,202 256,202 259,202 262,211 265,211 268,211 271,20 274,47 277,47 280,47 283,56 286,56 289,56 292,56 295,75 298,75 301,75 304,84 307,102 310,111 313,111 316,111 319,111 322,111 325,120 328,129 331,165 334,165 337,193 340,211 343,211 346,211 349,211 352,211 355,211 358,211 362,211 365,211 368,211 371,220 374,220 377,220 380,56 383,56 386,56 389,56 392,56 395,56 398,56 401,56 404,75 407,75 410,75 413,84 416,93 419,120 422,120 425,120 428,120 431,129 434,129 437,138 440,165 443,175 446,193 449,211 452,184 455,202 458,202 461,202 464,211 467,211 470,211 473,211 476,211 479,220 482,220 485,220 488,56 491,56 494,56 497,56 500,56 503,56 506,56 509,56 512,65 515,93 518,93 521,102 524,102 527,102 530,111 533,111 536,129 539,129 542,129 545,138 548,156 551,165 554,193 557,211 560,211 563,211 566,211 569,211 572,211 575,211 578,211 581,211 584,211 587,220 590,220 593,220 596,56 599,56 603,56 606,56 609,56 612,56 615,56 618,56 621,75 624,84 627,84 630,93 633,65 636,84 639,84 642,84 645,102 648,111 651,120 654,120 657,147 660,147 663,184 666,193 669,193 672,202 675,202 678,211 681,211 684,211 687,211 690,211 693,211 696,211 699,220 702,220 705,56 708,56 711,56 714,56 717,56 720,56"/></svg>
